<svg xmlns="http://www.w3.org/2000/svg" xmlns:xlink="http://www.w3.org/1999/xlink" width="500" zoomAndPan="magnify" viewBox="0 0 375 374.999991" height="500" preserveAspectRatio="xMidYMid meet" version="1.0"><path fill="#1a4d2e" d="M 109.84375 1.308594 C 89.890625 2.257812 76.269531 5.4375 64.363281 10.117188 C 52.03125 14.921875 41.589844 21.367188 31.191406 31.796875 C 20.800781 42.234375 14.394531 52.683594 9.628906 65.027344 C 5.011719 76.972656 1.886719 90.605469 1.007812 110.566406 C 0.117188 130.527344 -0.078125 136.941406 0.0195312 187.859375 C 0.117188 238.777344 0.34375 245.15625 1.308594 265.164062 C 2.265625 285.105469 5.441406 298.730469 10.117188 310.644531 C 14.933594 322.96875 21.367188 333.40625 31.808594 343.808594 C 42.234375 354.207031 52.683594 360.59375 65.058594 365.371094 C 76.992188 369.980469 90.625 373.125 110.585938 373.992188 C 130.535156 374.871094 136.960938 375.078125 187.871094 374.980469 C 238.769531 374.882812 245.175781 374.65625 265.175781 373.710938 C 285.175781 372.753906 298.71875 369.558594 310.644531 364.902344 C 322.96875 360.078125 333.417969 353.652344 343.808594 343.210938 C 354.199219 332.773438 360.59375 322.3125 365.371094 309.960938 C 369.988281 298.035156 373.125 284.394531 373.992188 264.453125 C 374.863281 244.441406 375.066406 238.046875 374.96875 187.136719 C 374.871094 136.230469 374.648438 129.84375 373.699219 109.851562 C 372.753906 89.851562 369.570312 76.277344 364.902344 64.355469 C 360.078125 52.03125 353.652344 41.589844 343.210938 31.191406 C 332.78125 20.78125 322.3125 14.382812 309.960938 9.628906 C 298.027344 5.019531 284.402344 1.875 264.441406 1.007812 C 244.480469 0.148438 238.054688 -0.078125 187.136719 0.0195312 C 136.21875 0.117188 129.84375 0.34375 109.84375 1.308594 M 112.03125 340.261719 C 93.75 339.472656 83.828125 336.433594 77.214844 333.894531 C 68.457031 330.515625 62.214844 326.433594 55.613281 319.910156 C 49.023438 313.378906 44.980469 307.117188 41.550781 298.378906 C 38.984375 291.757812 35.898438 281.84375 35.039062 263.5625 C 34.113281 243.808594 33.917969 237.871094 33.808594 187.8125 C 33.703125 137.753906 33.886719 131.835938 34.757812 112.058594 C 35.539062 93.796875 38.59375 83.855469 41.132812 77.246094 C 44.5 68.476562 48.574219 62.246094 55.117188 55.664062 C 61.660156 49.070312 67.898438 45.019531 76.648438 41.589844 C 83.261719 39.011719 93.171875 35.945312 111.445312 35.078125 C 131.21875 34.140625 137.148438 33.953125 187.195312 33.847656 C 237.246094 33.730469 243.183594 33.925781 262.96875 34.792969 C 281.230469 35.585938 291.171875 38.613281 297.78125 41.171875 C 306.542969 44.539062 312.78125 48.59375 319.363281 55.144531 C 325.957031 61.707031 330.019531 67.929688 333.4375 76.699219 C 336.023438 83.28125 339.089844 93.191406 339.949219 111.484375 C 340.898438 131.25 341.101562 137.175781 341.199219 187.226562 C 341.289062 237.273438 341.113281 243.222656 340.242188 262.976562 C 339.441406 281.257812 336.414062 291.191406 333.867188 297.8125 C 330.496094 306.570312 326.425781 312.8125 319.882812 319.394531 C 313.328125 325.984375 307.097656 330.039062 298.339844 333.457031 C 291.738281 336.035156 281.816406 339.109375 263.554688 339.980469 C 243.777344 340.90625 237.859375 341.101562 187.792969 341.21875 C 137.714844 341.328125 131.816406 341.121094 112.039062 340.261719 M 264.890625 87.285156 C 264.890625 88.769531 265.039062 90.222656 265.332031 91.679688 C 265.613281 93.125 266.042969 94.53125 266.609375 95.898438 C 267.1875 97.265625 267.878906 98.554688 268.699219 99.785156 C 269.519531 101.003906 270.457031 102.148438 271.503906 103.191406 C 272.546875 104.226562 273.691406 105.164062 274.921875 105.976562 C 276.152344 106.796875 277.449219 107.488281 278.816406 108.054688 C 280.183594 108.613281 281.589844 109.042969 283.035156 109.324219 C 284.492188 109.609375 285.945312 109.753906 287.429688 109.753906 C 288.90625 109.746094 290.371094 109.597656 291.816406 109.304688 C 293.261719 109.023438 294.667969 108.59375 296.035156 108.027344 C 297.402344 107.449219 298.691406 106.757812 299.921875 105.9375 C 301.152344 105.117188 302.285156 104.179688 303.328125 103.132812 C 304.375 102.089844 305.300781 100.945312 306.121094 99.714844 C 306.933594 98.484375 307.625 97.1875 308.191406 95.820312 C 308.757812 94.453125 309.179688 93.046875 309.460938 91.601562 C 309.746094 90.144531 309.890625 88.679688 309.890625 87.207031 C 309.882812 85.730469 309.734375 84.265625 309.441406 82.820312 C 309.160156 81.367188 308.730469 79.960938 308.164062 78.601562 C 307.585938 77.234375 306.894531 75.9375 306.074219 74.714844 C 305.253906 73.484375 304.316406 72.351562 303.269531 71.308594 C 302.214844 70.261719 301.082031 69.335938 299.851562 68.515625 C 298.621094 67.703125 297.324219 67.011719 295.957031 66.445312 C 294.589844 65.886719 293.183594 65.457031 291.738281 65.175781 C 290.28125 64.890625 288.816406 64.746094 287.34375 64.753906 C 285.867188 64.753906 284.402344 64.902344 282.957031 65.195312 C 281.503906 65.476562 280.097656 65.90625 278.738281 66.484375 C 277.371094 67.050781 276.082031 67.742188 274.851562 68.5625 C 273.621094 69.382812 272.488281 70.320312 271.445312 71.367188 C 270.410156 72.410156 269.472656 73.554688 268.660156 74.785156 C 267.839844 76.015625 267.148438 77.3125 266.582031 78.679688 C 266.023438 80.039062 265.59375 81.453125 265.3125 82.898438 C 265.027344 84.34375 264.882812 85.808594 264.890625 87.285156 M 91.230469 187.683594 C 91.328125 240.859375 134.511719 283.867188 187.675781 283.769531 C 240.839844 283.671875 283.886719 240.488281 283.777344 187.3125 C 283.679688 134.140625 240.488281 91.113281 187.3125 91.21875 C 134.140625 91.328125 91.121094 134.519531 91.230469 187.683594 M 125 187.617188 C 124.988281 185.574219 125.085938 183.535156 125.28125 181.492188 C 125.488281 179.453125 125.78125 177.429688 126.171875 175.417969 C 126.570312 173.417969 127.058594 171.433594 127.65625 169.472656 C 128.242188 167.507812 128.925781 165.585938 129.707031 163.691406 C 130.488281 161.796875 131.355469 159.949219 132.324219 158.144531 C 133.28125 156.335938 134.324219 154.578125 135.457031 152.871094 C 136.601562 151.171875 137.8125 149.53125 139.109375 147.9375 C 140.398438 146.355469 141.777344 144.84375 143.210938 143.386719 C 144.65625 141.941406 146.171875 140.566406 147.753906 139.257812 C 149.335938 137.957031 150.976562 136.738281 152.675781 135.59375 C 154.375 134.453125 156.121094 133.398438 157.929688 132.429688 C 159.726562 131.464844 161.582031 130.585938 163.464844 129.804688 C 165.359375 129.011719 167.285156 128.320312 169.238281 127.722656 C 171.191406 127.128906 173.171875 126.621094 175.183594 126.21875 C 177.1875 125.820312 179.207031 125.515625 181.25 125.3125 C 183.289062 125.105469 185.332031 125 187.371094 125 C 189.421875 124.988281 191.464844 125.085938 193.503906 125.28125 C 195.535156 125.476562 197.558594 125.78125 199.570312 126.171875 C 201.582031 126.570312 203.5625 127.058594 205.527344 127.644531 C 207.480469 128.242188 209.414062 128.925781 211.296875 129.707031 C 213.191406 130.488281 215.046875 131.355469 216.855469 132.3125 C 218.660156 133.28125 220.417969 134.324219 222.117188 135.457031 C 223.828125 136.589844 225.46875 137.8125 227.050781 139.101562 C 228.640625 140.398438 230.15625 141.765625 231.609375 143.210938 C 233.054688 144.65625 234.433594 146.171875 235.730469 147.753906 C 237.039062 149.324219 238.261719 150.964844 239.394531 152.664062 C 240.535156 154.363281 241.589844 156.121094 242.558594 157.917969 C 243.535156 159.726562 244.402344 161.570312 245.195312 163.464844 C 245.984375 165.351562 246.679688 167.273438 247.273438 169.238281 C 247.871094 171.191406 248.367188 173.171875 248.777344 175.183594 C 249.179688 177.1875 249.480469 179.207031 249.6875 181.25 C 249.890625 183.28125 250 185.320312 250 187.371094 C 250.007812 189.421875 249.910156 191.464844 249.714844 193.496094 C 249.511719 195.535156 249.21875 197.558594 248.828125 199.570312 C 248.425781 201.570312 247.9375 203.5625 247.34375 205.515625 C 246.757812 207.480469 246.074219 209.402344 245.292969 211.296875 C 244.511719 213.191406 243.640625 215.039062 242.675781 216.84375 C 241.71875 218.652344 240.671875 220.410156 239.539062 222.117188 C 238.398438 223.816406 237.1875 225.46875 235.886719 227.050781 C 234.597656 228.632812 233.222656 230.15625 231.785156 231.601562 C 230.339844 233.054688 228.828125 234.433594 227.246094 235.730469 C 225.664062 237.03125 224.023438 238.25 222.324219 239.394531 C 220.625 240.535156 218.875 241.589844 217.070312 242.558594 C 215.273438 243.523438 213.417969 244.402344 211.53125 245.195312 C 209.636719 245.976562 207.714844 246.667969 205.761719 247.265625 C 203.808594 247.871094 201.824219 248.367188 199.8125 248.769531 C 197.8125 249.179688 195.78125 249.480469 193.75 249.6875 C 191.707031 249.890625 189.667969 249.988281 187.625 250 C 185.574219 250 183.535156 249.902344 181.492188 249.707031 C 179.460938 249.511719 177.429688 249.21875 175.429688 248.816406 C 173.417969 248.425781 171.433594 247.929688 169.472656 247.34375 C 167.507812 246.757812 165.585938 246.0625 163.691406 245.292969 C 161.804688 244.511719 159.949219 243.640625 158.144531 242.675781 C 156.335938 241.71875 154.578125 240.671875 152.878906 239.53125 C 151.171875 238.398438 149.53125 237.1875 147.9375 235.886719 C 146.355469 234.597656 144.84375 233.222656 143.386719 231.777344 C 141.941406 230.332031 140.566406 228.828125 139.257812 227.246094 C 137.957031 225.664062 136.738281 224.023438 135.59375 222.324219 C 134.453125 220.625 133.40625 218.875 132.429688 217.070312 C 131.464844 215.261719 130.585938 213.417969 129.804688 211.53125 C 129.011719 209.636719 128.320312 207.714844 127.722656 205.761719 C 127.128906 203.796875 126.621094 201.816406 126.21875 199.8125 C 125.820312 197.800781 125.515625 195.78125 125.3125 193.75 C 125.105469 191.707031 125 189.667969 125 187.617188 " fill-opacity="1" fill-rule="nonzero"/></svg>