<svg xmlns="http://www.w3.org/2000/svg" xmlns:xlink="http://www.w3.org/1999/xlink" width="500" zoomAndPan="magnify" viewBox="0 0 375 374.999991" height="500" preserveAspectRatio="xMidYMid meet" version="1.0"><path fill="#1a4d2e" d="M 314.980469 272.722656 L 138.523438 272.722656 C 137.519531 272.761719 136.511719 272.695312 135.515625 272.527344 C 134.519531 272.363281 133.554688 272.089844 132.617188 271.726562 C 131.667969 271.367188 130.769531 270.917969 129.921875 270.371094 C 129.070312 269.824219 128.28125 269.207031 127.558594 268.503906 C 126.835938 267.800781 126.179688 267.03125 125.613281 266.199219 C 125.039062 265.371094 124.558594 264.492188 124.167969 263.5625 C 123.769531 262.625 123.476562 261.667969 123.269531 260.683594 C 123.074219 259.695312 122.96875 258.691406 122.96875 257.683594 C 122.96875 256.679688 123.074219 255.671875 123.269531 254.6875 C 123.476562 253.699219 123.769531 252.734375 124.167969 251.804688 C 124.558594 250.878906 125.039062 250 125.613281 249.167969 C 126.179688 248.328125 126.835938 247.566406 127.558594 246.863281 C 128.28125 246.160156 129.070312 245.535156 129.921875 245 C 130.769531 244.453125 131.667969 244.003906 132.617188 243.640625 C 133.554688 243.269531 134.519531 243.007812 135.515625 242.839844 C 136.511719 242.675781 137.519531 242.605469 138.523438 242.644531 L 314.980469 242.644531 C 316.921875 242.644531 318.808594 242.324219 320.632812 241.679688 C 322.46875 241.035156 324.140625 240.105469 325.652344 238.894531 C 327.167969 237.683594 328.4375 236.25 329.460938 234.609375 C 330.488281 232.957031 331.210938 231.191406 331.640625 229.296875 L 363.730469 84.902344 C 364.003906 83.660156 364.140625 82.390625 364.128906 81.121094 C 364.128906 79.84375 363.972656 78.582031 363.691406 77.34375 C 363.398438 76.101562 362.96875 74.902344 362.410156 73.757812 C 361.855469 72.605469 361.179688 71.542969 360.378906 70.546875 C 359.578125 69.550781 358.679688 68.652344 357.675781 67.859375 C 356.679688 67.070312 355.605469 66.394531 354.453125 65.847656 C 353.300781 65.292969 352.097656 64.882812 350.859375 64.597656 C 349.617188 64.316406 348.359375 64.179688 347.078125 64.179688 L 106.433594 64.179688 C 105.203125 64.167969 103.992188 64.296875 102.800781 64.550781 L 90.964844 13.210938 C 90.535156 11.328125 89.804688 9.578125 88.777344 7.949219 C 87.742188 6.316406 86.472656 4.902344 84.96875 3.703125 C 83.457031 2.5 81.796875 1.582031 79.96875 0.945312 C 78.152344 0.3125 76.277344 0 74.355469 0 L 26.222656 0 C 25.097656 0 23.984375 0.109375 22.890625 0.332031 C 21.796875 0.546875 20.722656 0.867188 19.699219 1.296875 C 18.664062 1.726562 17.675781 2.246094 16.75 2.871094 C 15.8125 3.496094 14.953125 4.199219 14.160156 4.988281 C 13.371094 5.78125 12.667969 6.640625 12.042969 7.578125 C 11.425781 8.503906 10.898438 9.492188 10.46875 10.515625 C 10.039062 11.550781 9.71875 12.625 9.503906 13.71875 C 9.277344 14.8125 9.171875 15.925781 9.171875 17.039062 C 9.171875 18.164062 9.277344 19.277344 9.503906 20.371094 C 9.71875 21.464844 10.039062 22.539062 10.46875 23.5625 C 10.898438 24.597656 11.425781 25.585938 12.042969 26.511719 C 12.667969 27.441406 13.371094 28.308594 14.160156 29.101562 C 14.953125 29.890625 15.8125 30.59375 16.75 31.21875 C 17.675781 31.835938 18.664062 32.363281 19.699219 32.792969 C 20.722656 33.222656 21.796875 33.542969 22.890625 33.757812 C 23.984375 33.984375 25.097656 34.089844 26.222656 34.089844 L 60.78125 34.089844 L 104.285156 222.558594 C 102.539062 224.257812 100.9375 226.0625 99.460938 227.996094 C 97.988281 229.929688 96.660156 231.953125 95.488281 234.082031 C 94.316406 236.210938 93.308594 238.417969 92.460938 240.691406 C 91.621094 242.96875 90.945312 245.292969 90.449219 247.675781 C 89.941406 250.046875 89.628906 252.449219 89.480469 254.882812 C 89.335938 257.304688 89.375 259.726562 89.589844 262.148438 C 89.8125 264.558594 90.203125 266.953125 90.78125 269.316406 C 91.347656 271.679688 92.089844 273.984375 93.007812 276.230469 C 93.925781 278.484375 95 280.652344 96.238281 282.742188 C 97.46875 284.832031 98.855469 286.824219 100.390625 288.710938 C 101.921875 290.59375 103.582031 292.351562 105.378906 293.992188 C 107.175781 295.625 109.082031 297.128906 111.09375 298.476562 C 113.113281 299.832031 115.214844 301.035156 117.410156 302.078125 C 119.609375 303.113281 121.863281 303.992188 124.1875 304.695312 C 126.511719 305.398438 128.875 305.9375 131.277344 306.289062 C 133.679688 306.648438 136.101562 306.824219 138.523438 306.816406 L 314.980469 306.816406 C 316.101562 306.816406 317.207031 306.707031 318.308594 306.492188 C 319.402344 306.269531 320.46875 305.945312 321.503906 305.515625 C 322.539062 305.085938 323.523438 304.570312 324.453125 303.945312 C 325.378906 303.320312 326.238281 302.617188 327.03125 301.824219 C 327.832031 301.035156 328.535156 300.175781 329.160156 299.238281 C 329.773438 298.308594 330.300781 297.332031 330.730469 296.296875 C 331.160156 295.261719 331.484375 294.199219 331.699219 293.09375 C 331.921875 292 332.03125 290.886719 332.03125 289.773438 C 332.03125 288.652344 331.921875 287.546875 331.699219 286.445312 C 331.484375 285.351562 331.160156 284.285156 330.730469 283.25 C 330.300781 282.214844 329.773438 281.230469 329.160156 280.300781 C 328.535156 279.375 327.832031 278.515625 327.03125 277.722656 C 326.238281 276.921875 325.378906 276.21875 324.453125 275.59375 C 323.523438 274.980469 322.539062 274.453125 321.503906 274.023438 C 320.46875 273.59375 319.402344 273.269531 318.308594 273.054688 C 317.207031 272.832031 316.101562 272.722656 314.980469 272.722656 Z M 314.980469 272.722656 " fill-opacity="1" fill-rule="nonzero"/><path fill="#1a4d2e" d="M 186.648438 349.433594 C 186.648438 351.113281 186.484375 352.773438 186.152344 354.421875 C 185.828125 356.0625 185.339844 357.664062 184.695312 359.21875 C 184.0625 360.769531 183.269531 362.234375 182.332031 363.632812 C 181.40625 365.027344 180.339844 366.328125 179.160156 367.507812 C 177.96875 368.699219 176.679688 369.753906 175.28125 370.691406 C 173.886719 371.621094 172.410156 372.410156 170.859375 373.054688 C 169.316406 373.691406 167.714844 374.179688 166.0625 374.511719 C 164.421875 374.832031 162.753906 375 161.082031 375 C 159.402344 375 157.734375 374.832031 156.09375 374.511719 C 154.441406 374.179688 152.839844 373.691406 151.296875 373.054688 C 149.746094 372.410156 148.269531 371.621094 146.875 370.691406 C 145.476562 369.753906 144.1875 368.699219 142.996094 367.507812 C 141.816406 366.328125 140.75 365.027344 139.824219 363.632812 C 138.886719 362.234375 138.09375 360.769531 137.460938 359.21875 C 136.816406 357.664062 136.328125 356.0625 136.003906 354.421875 C 135.671875 352.773438 135.507812 351.113281 135.507812 349.433594 C 135.507812 347.753906 135.671875 346.09375 136.003906 344.441406 C 136.328125 342.792969 136.816406 341.199219 137.460938 339.648438 C 138.09375 338.09375 138.886719 336.621094 139.824219 335.222656 C 140.75 333.828125 141.816406 332.539062 142.996094 331.347656 C 144.1875 330.164062 145.476562 329.101562 146.875 328.171875 C 148.269531 327.234375 149.746094 326.453125 151.296875 325.808594 C 152.839844 325.164062 154.441406 324.675781 156.09375 324.355469 C 157.734375 324.023438 159.402344 323.867188 161.082031 323.867188 C 162.753906 323.867188 164.421875 324.023438 166.0625 324.355469 C 167.714844 324.675781 169.316406 325.164062 170.859375 325.808594 C 172.410156 326.453125 173.886719 327.234375 175.28125 328.171875 C 176.679688 329.101562 177.96875 330.164062 179.160156 331.347656 C 180.339844 332.539062 181.40625 333.828125 182.332031 335.222656 C 183.269531 336.621094 184.0625 338.09375 184.695312 339.648438 C 185.339844 341.199219 185.828125 342.792969 186.152344 344.441406 C 186.484375 346.09375 186.648438 347.753906 186.648438 349.433594 Z M 186.648438 349.433594 " fill-opacity="1" fill-rule="nonzero"/><path fill="#1a4d2e" d="M 305.964844 349.433594 C 305.964844 351.113281 305.800781 352.773438 305.476562 354.421875 C 305.144531 356.0625 304.65625 357.664062 304.023438 359.21875 C 303.378906 360.769531 302.585938 362.234375 301.660156 363.632812 C 300.722656 365.027344 299.667969 366.328125 298.476562 367.507812 C 297.285156 368.699219 295.996094 369.753906 294.597656 370.691406 C 293.203125 371.621094 291.726562 372.410156 290.183594 373.054688 C 288.632812 373.691406 287.03125 374.179688 285.390625 374.511719 C 283.738281 374.832031 282.078125 375 280.398438 375 C 278.71875 375 277.058594 374.832031 275.410156 374.511719 C 273.757812 374.179688 272.167969 373.691406 270.613281 373.054688 C 269.0625 372.410156 267.585938 371.621094 266.191406 370.691406 C 264.792969 369.753906 263.503906 368.699219 262.3125 367.507812 C 261.132812 366.328125 260.066406 365.027344 259.140625 363.632812 C 258.203125 362.234375 257.421875 360.769531 256.777344 359.21875 C 256.132812 357.664062 255.644531 356.0625 255.320312 354.421875 C 254.988281 352.773438 254.832031 351.113281 254.832031 349.433594 C 254.832031 347.753906 254.988281 346.09375 255.320312 344.441406 C 255.644531 342.792969 256.132812 341.199219 256.777344 339.648438 C 257.421875 338.09375 258.203125 336.621094 259.140625 335.222656 C 260.066406 333.828125 261.132812 332.539062 262.3125 331.347656 C 263.503906 330.164062 264.792969 329.101562 266.191406 328.171875 C 267.585938 327.234375 269.0625 326.453125 270.613281 325.808594 C 272.167969 325.164062 273.757812 324.675781 275.410156 324.355469 C 277.058594 324.023438 278.71875 323.867188 280.398438 323.867188 C 282.078125 323.867188 283.738281 324.023438 285.390625 324.355469 C 287.03125 324.675781 288.632812 325.164062 290.183594 325.808594 C 291.726562 326.453125 293.203125 327.234375 294.597656 328.171875 C 295.996094 329.101562 297.285156 330.164062 298.476562 331.347656 C 299.667969 332.539062 300.722656 333.828125 301.660156 335.222656 C 302.585938 336.621094 303.378906 338.09375 304.023438 339.648438 C 304.65625 341.199219 305.144531 342.792969 305.476562 344.441406 C 305.800781 346.09375 305.964844 347.753906 305.964844 349.433594 Z M 305.964844 349.433594 " fill-opacity="1" fill-rule="nonzero"/></svg>