<svg xmlns="http://www.w3.org/2000/svg" xmlns:xlink="http://www.w3.org/1999/xlink" width="500" zoomAndPan="magnify" viewBox="0 0 375 374.999991" height="500" preserveAspectRatio="xMidYMid meet" version="1.0"><defs><clipPath id="156f7bf68f"><path d="M 0 0 L 373.125 0 L 373.125 375 L 0 375 Z M 0 0 " clip-rule="nonzero"/></clipPath></defs><g clip-path="url(#156f7bf68f)"><path fill="#1a4d2e" d="M 318.757812 54.453125 C 283.691406 19.355469 237.039062 0.0195312 187.34375 0 C 84.941406 0 1.59375 83.289062 1.5625 185.671875 C 1.542969 218.398438 10.097656 250.339844 26.359375 278.496094 L 0 374.726562 L 98.484375 348.90625 C 125.625 363.699219 156.171875 371.492188 187.265625 371.503906 L 187.34375 371.503906 C 289.734375 371.503906 373.085938 288.203125 373.125 185.820312 C 373.144531 136.199219 353.835938 89.558594 318.757812 54.460938 Z M 187.34375 340.144531 L 187.285156 340.144531 C 159.578125 340.136719 132.402344 332.683594 108.691406 318.632812 L 103.046875 315.28125 L 44.597656 330.605469 L 60.203125 273.652344 L 56.53125 267.8125 C 41.074219 243.242188 32.910156 214.832031 32.921875 185.683594 C 32.960938 100.59375 102.226562 31.355469 187.410156 31.355469 C 228.652344 31.375 267.421875 47.449219 296.582031 76.621094 C 325.730469 105.789062 341.777344 144.570312 341.757812 185.800781 C 341.71875 270.898438 272.449219 340.136719 187.34375 340.136719 Z M 272.039062 224.558594 C 267.402344 222.234375 244.578125 211.015625 240.320312 209.472656 C 236.0625 207.917969 232.976562 207.148438 229.882812 211.796875 C 226.785156 216.445312 217.890625 226.894531 215.183594 229.980469 C 212.480469 233.085938 209.765625 233.464844 205.125 231.140625 C 200.488281 228.816406 185.527344 223.914062 167.792969 208.113281 C 153.992188 195.808594 144.675781 180.625 141.972656 175.976562 C 139.257812 171.328125 141.679688 168.816406 144.003906 166.511719 C 146.082031 164.421875 148.640625 161.09375 150.964844 158.378906 C 153.289062 155.671875 154.050781 153.738281 155.605469 150.644531 C 157.15625 147.546875 156.386719 144.84375 155.222656 142.519531 C 154.0625 140.195312 144.785156 117.351562 140.90625 108.066406 C 137.136719 99.023438 133.308594 100.253906 130.46875 100.105469 C 127.761719 99.96875 124.667969 99.941406 121.570312 99.941406 C 118.464844 99.941406 113.445312 101.101562 109.1875 105.75 C 104.929688 110.390625 92.9375 121.621094 92.9375 144.453125 C 92.9375 167.273438 109.570312 189.34375 111.894531 192.449219 C 114.21875 195.546875 144.628906 242.402344 191.191406 262.507812 C 202.265625 267.285156 210.917969 270.144531 217.65625 272.285156 C 228.777344 275.820312 238.894531 275.320312 246.894531 274.121094 C 255.808594 272.792969 274.363281 262.898438 278.222656 252.058594 C 282.089844 241.230469 282.089844 231.933594 280.9375 230 C 279.773438 228.066406 276.679688 226.902344 272.03125 224.578125 Z M 272.039062 224.558594 " fill-opacity="1" fill-rule="evenodd"/></g></svg>